[center][img]http://img863.imageshack.us/img863/4986/rangomovieposter2.jpg[/img]



[img]http://leetleech.org/images/48874973695367351744.png[/img]


Format                           : AVI
Format/Info                      : Audio Video Interleave
File size                        : 1.33 GiB
Duration                         : 1h 36mn
Overall bit rate                 : 1 976 Kbps
Writing application              : FairUse Wizard - http://fairusewizard.com
Writing library                  : VirtualDub build 32839/release

Video
ID                               : 0
Format                           : MPEG-4 Visual
Format profile                   : Advanced Simple@L5
Format settings, BVOP            : Yes
Format settings, QPel            : No
Format settings, GMC             : No warppoints
Format settings, Matrix          : Custom
Codec ID                         : XVID
Codec ID/Hint                    : XviD
Duration                         : 1h 36mn
Bit rate                         : 1 839 Kbps
Width                            : 688 pixels
Height                           : 384 pixels
Display aspect ratio             : 16:9
Frame rate                       : 25.000 fps
Color space                      : YUV
Chroma subsampling               : 4:2:0
Bit depth                        : 8 bits
Scan type                        : Progressive
Bits/(Pixel*Frame)               : 0.278
Stream size                      : 1.24 GiB (93%)
Writing library                  : XviD 1.2.1 (UTC 2008-12-04)

Audio
ID                               : 1
Format                           : MPEG Audio
Format version                   : Version 1
Format profile                   : Layer 3
Codec ID                         : 55
Codec ID/Hint                    : MP3
Duration                         : 1h 36mn
Bit rate mode                    : Constant
Bit rate                         : 128 Kbps
Channel(s)                       : 2 channels
Sampling rate                    : 44.1 KHz
Stream size                      : 88.4 MiB (6%)
Alignment                        : Split accross interleaves
Interleave, duration             : 40 ms (1.00 video frame)
Interleave, preload duration     : 500 ms
Writing library                  : LAME3.98.4




[url]http://www.imdb.com/title/tt1192628/[/url]




[IMG]http://leetleech.org/images/89524873606771859129.png[/IMG]


Users: 7.9/10 (4,768 votes) 87 reviews | Critics: 175 reviews Metascore: 75/100 (based on 35 reviews from Metacritic.com)

Rango is an ordinary chameleon who accidentally winds up in the town of Dirt, a lawless outpost in the Wild West in desperate need of a new sheriff.
Director:
Gore Verbinski
Writers:
John Logan, John Logan (story), and 2 more credits »
Stars:
Johnny Depp, Isla Fisher and Timothy Olyphant 



[img]http://leetleech.org/images/95521316153253938506.png[/img]




[img]http://img809.imageshack.us/img809/6317/vlcsnap2011031313h20m59.png[/img]
[img]http://img232.imageshack.us/img232/6171/vlcsnap2011031313h25m18.png[/img]
[img]http://img860.imageshack.us/img860/3693/vlcsnap2011031313h20m38.png[/img]


VIDEO: Cinedub ... Thanks

AUDIO: Imagine  ... Thanks

Video has a scroll/flicker cant do nothing about it but for now this is watchable imo ........

Few usual filters best i could do for now

Enjoy




Greetz to Imagine ,Flawl3ss,DiLLoN,BDK,NOiR,TOXiCiNK,THC,Ez,Rx,





[img]http://img411.imageshack.us/img411/6898/sig1n.jpg[/img]





[/center]